<svg height="200" viewBox="305.780454074624 136.8598922241996 73.78809185075198 124.31812635251788" style="fill: rgb(255, 255, 255);">
        <g data-paper-data="{&quot;isIcon&quot;:&quot;true&quot;,&quot;iconType&quot;:&quot;icon&quot;,&quot;rawIconId&quot;:&quot;984453&quot;,&quot;selectedEffects&quot;:{&quot;container&quot;:&quot;&quot;,&quot;transformation&quot;:&quot;&quot;,&quot;pattern&quot;:&quot;&quot;},&quot;combineTerms&quot;:&quot;undefined&quot;,&quot;isDetailed&quot;:false,&quot;fillRule&quot;:&quot;evenodd&quot;,&quot;bounds&quot;:{&quot;x&quot;:305.780454074624,&quot;y&quot;:136.8598922241996,&quot;width&quot;:73.78809185075198,&quot;height&quot;:124.31812635251788},&quot;iconStyle&quot;:&quot;icon-in-text&quot;,&quot;suitableAsStandaloneIcon&quot;:true}"
            fill-rule="evenodd" style="fill: rgb(255, 255, 255);">
            <path
                d="M321.72275,261.17802c0.13969,0 0.27153,-0.00151 0.3955,-0.00454l35.49938,-0.45809c6.45069,0 11.34148,-3.14522 14.67235,-9.43566c1.54449,-2.91663 2.93991,-7.40436 4.18627,-13.46319c0.07317,-0.35377 0.13153,-0.63558 0.17507,-0.84542c0.68153,-2.73702 1.44743,-6.20789 2.29769,-10.41261c0.11974,-0.30297 0.22587,-0.62469 0.31839,-0.96515c0.20077,-0.73294 0.30116,-1.47736 0.30116,-2.23328c0,-2.04944 -0.82879,-3.75147 -2.48636,-5.10607c-1.22821,-1.00446 -2.59733,-1.53391 -4.10735,-1.58833c-0.56543,-0.0381 -1.43503,-0.12125 -2.60882,-0.24945c-2.26291,-0.24794 -3.99608,-0.37191 -5.1995,-0.37191c-0.16449,0 -0.32625,0.00484 -0.4853,0.01451c0.06954,-8.21652 0.20319,-14.79541 0.40094,-19.73669c0.00302,-0.0768 0.00454,-0.1536 0.00454,-0.2304c0,-5.1487 0.24734,-10.1949 0.74201,-15.1386c0.01935,-0.1911 0.02903,-0.3828 0.02903,-0.5751c0,-7.73878 -0.45748,-13.55117 -1.37244,-17.43719c-1.5324,-6.84196 -4.17357,-12.5322 -7.92352,-17.07072c-4.96305,-6.00682 -11.08144,-9.01023 -18.35518,-9.01023c-5.0967,0 -10.29831,1.83023 -15.60485,5.49068c-4.00334,2.76424 -6.9877,6.80718 -8.95308,12.12884c-1.54812,4.19201 -2.32218,8.71663 -2.32218,13.57385c0,4.81005 0.48076,10.67264 1.44229,17.58777c0.06471,0.46323 0.18384,0.91224 0.3574,1.34704c0.03628,0.09071 0.09283,0.24159 0.16963,0.45264c1.36609,3.76326 3.96977,5.64489 7.81104,5.64489h0.77013c0.4983,0 0.98844,-0.0635 1.47041,-0.19049l5.78639,-1.52393c3.42824,-0.85812 5.14235,-3.08475 5.14235,-6.67989c0,-1.17802 -0.29995,-2.76333 -0.89984,-4.75593c-0.17235,-0.57147 -0.27999,-0.95336 -0.32293,-1.14567c-0.52007,-2.29013 -0.78011,-5.30382 -0.78011,-9.04107c0,-4.34683 0.94762,-7.29218 2.84285,-8.83607c0.43783,-0.32474 0.69786,-0.48711 0.78011,-0.48711c0.03326,0 0.13425,0.10099 0.30297,0.30297c0.60897,0.72931 1.15897,1.92517 1.65002,3.58758c0.90347,3.06056 1.35732,6.59674 1.36156,10.60854l-0.3066,13.79881l-0.14876,6.69168c-1.11876,-0.11188 -2.27743,-0.16781 -3.47601,-0.16781c-6.29528,0 -11.089,1.53421 -14.38117,4.60263c-5.82359,5.25997 -10.03495,12.98907 -12.6341,23.1873c-1.65576,6.62183 -2.48364,12.06988 -2.48364,16.34414c0,5.18741 0.8179,9.52304 2.45371,13.00691c2.75154,5.85987 7.24773,8.7898 13.48858,8.7898zM372.7154,218.69669c-2.05609,0.18565 -3.46966,1.14295 -4.24069,2.87188c0.10946,-0.1917 0.2298,-0.37645 0.36103,-0.55424c0.13062,-0.17779 0.27122,-0.34742 0.4218,-0.50888c0.15058,-0.16207 0.30962,-0.31476 0.47713,-0.45809c0.16812,-0.14332 0.34379,-0.27667 0.52703,-0.40003c0.18323,-0.12337 0.37312,-0.23585 0.56966,-0.33744c0.19593,-0.1016 0.39701,-0.1917 0.60322,-0.27032c0.20682,-0.07801 0.41727,-0.14423 0.63134,-0.19866c0.21408,-0.05443 0.43057,-0.09646 0.64948,-0.12609zM372.94943,218.68852l0.00091,-0.00907c0.17416,-0.01089 0.35256,-0.01633 0.53519,-0.01633c-0.179,0 -0.3577,0.00847 -0.5361,0.0254zM363.57274,241.99919c-0.49588,1.64609 -0.99207,2.9381 -1.48855,3.87604c-1.16169,2.19397 -2.65055,3.29096 -4.46656,3.29096l-35.68896,0.4599l-0.09343,0.00181c-0.02721,0.0006 -0.06471,0.00091 -0.11248,0.00091c-2.92873,0 -4.39309,-3.41584 -4.39309,-10.24751c0,-3.32604 0.71268,-7.84037 2.13804,-13.54301c2.02102,-7.92866 5.08732,-13.74318 9.19891,-17.44354c0.03205,-0.02903 0.0638,-0.05805 0.09525,-0.08708c1.07038,-1.00749 3.24288,-1.51123 6.51752,-1.51123c2.70195,0 4.95005,0.39882 6.74429,1.19647c0.08648,0.0381 0.17386,0.07438 0.26215,0.10885c0.08769,0.03387 0.17658,0.06561 0.26669,0.09525c0.0895,0.02963 0.17991,0.05715 0.27122,0.08255c0.09071,0.0254 0.18233,0.04838 0.27485,0.06894c0.09192,0.02117 0.18444,0.03991 0.27757,0.05624c0.09313,0.01633 0.18656,0.03024 0.28029,0.04173c0.09373,0.01149 0.18777,0.02086 0.28211,0.02812c0.09434,0.00726 0.18868,0.01209 0.28302,0.01451c0.09434,0.00242 0.18868,0.00242 0.28302,0c0.09494,-0.00242 0.18928,-0.00695 0.28302,-0.01361c0.09434,-0.00665 0.18837,-0.01572 0.28211,-0.02721c0.09434,-0.01149 0.18807,-0.0254 0.2812,-0.04173c0.09313,-0.01572 0.18565,-0.03417 0.27757,-0.05533c0.09252,-0.02056 0.18414,-0.04324 0.27485,-0.06803c0.09131,-0.0254 0.18172,-0.05291 0.27122,-0.08255c0.09011,-0.02903 0.1793,-0.06047 0.26759,-0.09434c0.08769,-0.03447 0.17477,-0.07075 0.26124,-0.10885c0.08648,-0.0381 0.17205,-0.07831 0.25671,-0.12064c0.08466,-0.04233 0.16812,-0.08678 0.25036,-0.13334c0.08224,-0.04656 0.16328,-0.09494 0.2431,-0.14514c0.07982,-0.0508 0.15844,-0.10341 0.23585,-0.15784c0.07741,-0.05382 0.1533,-0.10976 0.22768,-0.16781c0.07438,-0.05805 0.14756,-0.11792 0.21952,-0.17961c0.07136,-0.06168 0.14121,-0.12518 0.20954,-0.19049c0.06894,-0.06531 0.13607,-0.13213 0.20138,-0.20047c0.06471,-0.06833 0.1282,-0.13818 0.19049,-0.20954c0.06168,-0.07136 0.12155,-0.14423 0.17961,-0.21861c0.05805,-0.07438 0.11429,-0.15028 0.16872,-0.22768c0.05503,-0.07741 0.10764,-0.15602 0.15784,-0.23585c0.0508,-0.07982 0.09948,-0.16056 0.14604,-0.2422c0.04656,-0.08224 0.09131,-0.1657 0.13425,-0.25036c0.04233,-0.08406 0.08285,-0.16933 0.12155,-0.2558c0.15542,-0.34954 0.27485,-0.71086 0.3583,-1.08399c0.08345,-0.37312 0.12941,-0.75108 0.13788,-1.13388l0.30751,-13.86503l0.30841,-13.86412c0.00121,-0.04294 0.00181,-0.08587 0.00181,-0.12881c0,-5.14931 -0.61169,-9.79608 -1.83506,-13.94032c-2.39475,-8.11311 -6.73764,-12.16966 -13.02868,-12.16966c-0.31325,0 -0.6256,0.0133 -0.93703,0.03991c1.12904,-0.33805 2.21151,-0.50707 3.24742,-0.50707c3.64775,0 6.79842,1.60557 9.45199,4.8167c2.57556,3.1174 4.42786,7.19694 5.5569,12.2386c0.71903,3.05451 1.08338,7.93138 1.09306,14.63062c-0.5104,5.19527 -0.76741,10.48911 -0.77104,15.88152c-0.30781,7.77929 -0.46171,19.42314 -0.46171,34.93153c0,0.24008 0.01512,0.47895 0.04536,0.71661c0.00726,0.05805 0.02207,0.18444 0.04445,0.37917c0.19714,1.6993 0.40366,3.04846 0.61955,4.04748c0.97785,4.52946 3.23109,6.79418 6.75971,6.79418c1.1242,0 2.1335,-0.28211 3.0279,-0.84632zM326.1503,180.21567l0.1787,-0.04717c-0.06047,0.01512 -0.12004,0.03084 -0.1787,0.04717z"
                style="fill: rgb(255, 255, 255);"></path>
            <path
                d="M320.92809,225.82104l14.88678,-14.8868c0.01974,-0.01975 0.04122,-0.03738 0.06444,-0.0529c0.02322,-0.01551 0.04774,-0.02861 0.07354,-0.0393c0.0258,-0.01069 0.0524,-0.01876 0.07979,-0.02421c0.02739,-0.00545 0.05505,-0.00817 0.08298,-0.00817c0.02793,0 0.05559,0.00272 0.08298,0.00817c0.02739,0.00545 0.05399,0.01352 0.07979,0.02421c0.0258,0.01069 0.0503,0.02379 0.0735,0.0393c0.02322,0.01552 0.04472,0.03315 0.06448,0.0529l14.88738,14.8874c0.01976,0.01974 0.0374,0.04122 0.05291,0.06444c0.01551,0.02322 0.02861,0.04774 0.0393,0.07354c0.01069,0.0258 0.01876,0.0524 0.0242,0.07979c0.00544,0.02739 0.00817,0.05505 0.00817,0.08298c0,0.02793 -0.00272,0.05559 -0.00817,0.08298c-0.00544,0.02739 -0.01351,0.05399 -0.0242,0.07979c-0.01069,0.0258 -0.02379,0.05032 -0.0393,0.07354c-0.01551,0.02322 -0.03315,0.0447 -0.05291,0.06444l-1.82516,1.8252l1.82639,1.82639c0.0399,0.0399 0.07064,0.08589 0.09221,0.13798c0.02158,0.05212 0.03237,0.10638 0.03237,0.16278c0,0.0564 -0.01079,0.11066 -0.03237,0.16278c-0.02161,0.05212 -0.05235,0.09811 -0.09221,0.13798l-14.88751,14.88708c-0.01976,0.01976 -0.04126,0.0374 -0.06448,0.05291c-0.02322,0.01551 -0.04774,0.02861 -0.07354,0.0393c-0.0258,0.01069 -0.0524,0.01876 -0.07979,0.0242c-0.02736,0.00544 -0.05501,0.00817 -0.08294,0.00817c-0.02793,0 -0.05559,-0.00272 -0.08298,-0.00817c-0.02739,-0.00544 -0.05399,-0.01351 -0.07979,-0.0242c-0.0258,-0.01069 -0.05032,-0.0238 -0.07354,-0.03934c-0.02322,-0.01551 -0.0447,-0.03313 -0.06444,-0.05287l-14.88585,-14.88712c-0.01976,-0.01976 -0.0374,-0.04126 -0.05291,-0.06448c-0.01551,-0.02322 -0.02861,-0.04774 -0.0393,-0.07354c-0.01066,-0.0258 -0.01872,-0.0524 -0.02416,-0.07979c-0.00544,-0.02739 -0.00817,-0.05505 -0.00817,-0.08298c0,-0.02793 0.00274,-0.05559 0.00821,-0.08298c0.00544,-0.02739 0.01351,-0.05399 0.0242,-0.07979c0.01069,-0.0258 0.02379,-0.0503 0.0393,-0.0735c0.01554,-0.02322 0.03318,-0.0447 0.05291,-0.06444l1.82537,-1.82465l-1.8275,-1.8275c-0.01976,-0.01976 -0.0374,-0.04124 -0.05291,-0.06444c-0.01551,-0.02322 -0.02861,-0.04774 -0.0393,-0.07354c-0.01069,-0.0258 -0.01876,-0.0524 -0.0242,-0.07979c-0.00544,-0.02739 -0.00817,-0.05505 -0.00817,-0.08298c0,-0.02793 0.00272,-0.05559 0.00817,-0.08298c0.00544,-0.02739 0.01351,-0.05399 0.0242,-0.07979c0.01069,-0.0258 0.02379,-0.05032 0.0393,-0.07354c0.01551,-0.02322 0.03315,-0.0447 0.05291,-0.06444zM350.4015,226.1224l-14.28501,14.28501l-5.43179,-5.43127l-8.85433,-8.85433l14.28526,-14.28526zM336.4175,236.79912c-0.01976,0.01976 -0.04126,0.0374 -0.06448,0.05291c-0.02322,0.01551 -0.04774,0.02861 -0.07354,0.0393c-0.0258,0.01069 -0.0524,0.01876 -0.07979,0.0242c-0.02736,0.00544 -0.05501,0.00817 -0.08294,0.00817c-0.02793,0 -0.05559,-0.00272 -0.08298,-0.00817c-0.02739,-0.00544 -0.05399,-0.01351 -0.07979,-0.0242c-0.0258,-0.01069 -0.05032,-0.0238 -0.07354,-0.03934c-0.02322,-0.01551 -0.0447,-0.03313 -0.06444,-0.05287l-10.37459,-10.37545c-0.01976,-0.01976 -0.0374,-0.04126 -0.05291,-0.06448c-0.01551,-0.0232 -0.02861,-0.0477 -0.0393,-0.0735c-0.01069,-0.0258 -0.01876,-0.0524 -0.0242,-0.07979c-0.00544,-0.02739 -0.00817,-0.05505 -0.00817,-0.08298c0,-0.02793 0.00272,-0.05559 0.00817,-0.08298c0.00544,-0.02739 0.01351,-0.05399 0.0242,-0.07979c0.01069,-0.0258 0.02379,-0.0503 0.0393,-0.0735c0.01551,-0.02322 0.03315,-0.04472 0.05291,-0.06448l10.37502,-10.37587v0c0.0399,-0.0399 0.08591,-0.07064 0.13802,-0.09221c0.05209,-0.02158 0.10634,-0.03237 0.16274,-0.03237c0.05643,0 0.11069,0.01079 0.16278,0.03237c0.05212,0.02161 0.09811,0.05235 0.13798,0.09221l10.37545,10.3763c0.01976,0.01976 0.0374,0.04126 0.05291,0.06448c0.01551,0.02322 0.02861,0.04774 0.0393,0.07354c0.01069,0.02578 0.01876,0.05236 0.0242,0.07975c0.00544,0.02739 0.00817,0.05505 0.00817,0.08298c0,0.02793 -0.00272,0.05559 -0.00817,0.08298c-0.00544,0.02739 -0.01351,0.05399 -0.0242,0.07979c-0.01069,0.0258 -0.0238,0.05032 -0.03934,0.07354c-0.01551,0.02322 -0.03313,0.0447 -0.05287,0.06444zM336.11717,220.86024l5.26186,5.26263l-5.26229,5.2619l-5.26186,-5.26186zM337.77163,225.82219l-1.35273,-1.35234c-0.01974,-0.01976 -0.04122,-0.0374 -0.06444,-0.05291c-0.02322,-0.01551 -0.04774,-0.02861 -0.07354,-0.0393c-0.0258,-0.01066 -0.0524,-0.01872 -0.07979,-0.02416c-0.02739,-0.00544 -0.05505,-0.00817 -0.08298,-0.00817c-0.02793,0 -0.05559,0.00272 -0.08298,0.00817c-0.02739,0.00547 -0.05399,0.01355 -0.07979,0.02424c-0.0258,0.01069 -0.05032,0.02379 -0.07354,0.0393c-0.02322,0.01551 -0.0447,0.03315 -0.06444,0.05291l-1.35204,1.35238c-0.01974,0.01976 -0.03736,0.04126 -0.05287,0.06448c-0.01551,0.02322 -0.02861,0.04774 -0.0393,0.07354c-0.01069,0.0258 -0.01876,0.0524 -0.0242,0.07979c-0.00544,0.02739 -0.00815,0.05505 -0.00812,0.08298c0,0.02793 0.00272,0.05559 0.00817,0.08298c0.00544,0.02739 0.01351,0.05399 0.0242,0.07979c0.01069,0.02578 0.0238,0.05028 0.03934,0.0735c0.01551,0.02322 0.03313,0.0447 0.05287,0.06444l1.35273,1.35234c0.01976,0.01976 0.04126,0.0374 0.06448,0.05291c0.02322,0.01551 0.04774,0.0286 0.07354,0.03926c0.0258,0.01069 0.0524,0.01876 0.07979,0.0242c0.02739,0.00544 0.05505,0.00817 0.08298,0.00817c0.02793,0 0.05558,-0.00272 0.08294,-0.00817c0.02739,-0.00547 0.05399,-0.01355 0.07979,-0.02424c0.0258,-0.01069 0.05032,-0.02379 0.07354,-0.0393c0.02322,-0.01551 0.0447,-0.03315 0.06444,-0.05291l1.35204,-1.35238c0.01974,-0.01976 0.03736,-0.04126 0.05287,-0.06448c0.01551,-0.02322 0.02861,-0.04774 0.0393,-0.07354c0.01069,-0.0258 0.01876,-0.0524 0.0242,-0.07979c0.00544,-0.02739 0.00817,-0.05505 0.00817,-0.08298c0,-0.02793 -0.00274,-0.05559 -0.00821,-0.08298c-0.00544,-0.02739 -0.01351,-0.05399 -0.0242,-0.07979c-0.01069,-0.02578 -0.02379,-0.05028 -0.0393,-0.0735c-0.01554,-0.02322 -0.03318,-0.0447 -0.05291,-0.06444z"
                data-paper-data="{&quot;isPathIcon&quot;:true}" style="fill: rgb(255, 255, 255);"></path>
        </g>
    </svg>